<?xml version="1.0" encoding="UTF-8"?>
<svg width="24px" height="24px" viewBox="0 0 24 24" version="1.1" xmlns="http://www.w3.org/2000/svg">
    <path d="M12,2 C6.477,2 2,6.477 2,12 C2,16.418278 4.865,20.1665 8.839,21.489 C9.339,21.581 9.521,21.27 9.521,21 C9.521,20.757 9.499,19.847 9.499,19.067 C7,19.604 6.35,18.557 6.15,17.967 C6.037,17.677 5.537,16.787 5.125,16.544 C4.787,16.35 4.287,15.813 5.112,15.801 C5.887,15.788 6.463,16.575 6.65,16.877 C7.55,18.414 8.988,18.005 9.562,17.737 C9.654,17.087 9.929,16.656 10.231,16.415 C7.925,16.174 5.525,15.314 5.525,11.474 C5.525,10.371 5.937,9.467 6.675,8.751 C6.571,8.494 6.2,7.445 6.775,6.087 C6.775,6.087 7.612,5.819 9.525,7.089 C10.325,6.858 11.175,6.743 12.025,6.743 C12.875,6.743 13.725,6.858 14.525,7.089 C16.437,5.807 17.275,6.087 17.275,6.087 C17.85,7.445 17.479,8.494 17.375,8.751 C18.112,9.467 18.525,10.359 18.525,11.474 C18.525,15.327 16.112,16.174 13.806,16.415 C14.188,16.718 14.513,17.307 14.513,18.232 C14.513,19.569 14.491,20.658 14.491,21 C14.491,21.27 14.674,21.593 15.174,21.489 C19.135,20.1665 22,16.418278 22,12 C22,6.477 17.523,2 12,2 Z" fill="#000000"/>
</svg>
