<?xml version="1.0" encoding="UTF-8"?>
<svg width="24px" height="24px" viewBox="0 0 24 24" version="1.1" xmlns="http://www.w3.org/2000/svg">
    <path d="M22.65,9.45 L22.65,9.45 L19.35,0.35 C19.2,0.05 18.85,-0.05 18.55,0.05 C18.45,0.15 18.35,0.25 18.25,0.35 L15.55,7.25 L8.45,7.25 L5.75,0.35 C5.65,0.05 5.25,-0.05 4.95,0.05 C4.85,0.15 4.75,0.25 4.75,0.35 L1.45,9.45 C1.25,9.85 1.35,10.35 1.75,10.55 L11.75,17.25 C11.85,17.35 12.05,17.35 12.25,17.25 L22.25,10.55 C22.65,10.35 22.75,9.85 22.65,9.45 Z" fill="#FC6D26"/>
</svg>
